HIERARCHY
ROOT Hips
{
	OFFSET 0.000000 0.000000 0.000000
	CHANNELS 6 Xposition Yposition Zposition Xrotation Yrotation Zrotation
	JOINT LeftUpLeg_virtual
	{
		OFFSET 0.000000 0.000000 0.000000
		CHANNELS 3 Xrotation Yrotation Zrotation
		JOINT LeftUpLeg
		{
			OFFSET 13.026900 -6.336304 -1.092800
			CHANNELS 3 Xrotation Yrotation Zrotation
			JOINT LeftLeg
			{
				OFFSET 0.524474 -46.096886 9.782700
				CHANNELS 3 Xrotation Yrotation Zrotation
				JOINT LeftFoot
				{
					OFFSET -0.524474 -53.427422 -12.948200
					CHANNELS 3 Xrotation Yrotation Zrotation
					JOINT LeftToeBase
					{
						OFFSET 0.192200 -14.009700 16.364100
						CHANNELS 3 Xrotation Yrotation Zrotation
						JOINT LeftToe_End
						{
							OFFSET -1.784700 -0.561700 9.474800
							CHANNELS 3 Xrotation Yrotation Zrotation
							End Site
							{
								OFFSET 0 0 0
							}
						}
					}
				}
			}
		}
	}
	JOINT RightUpLeg_virtual
	{
		OFFSET 0.000000 0.000000 0.000000
		CHANNELS 3 Xrotation Yrotation Zrotation
		JOINT RightUpLeg
		{
			OFFSET -12.883000 -6.336304 -1.092800
			CHANNELS 3 Xrotation Yrotation Zrotation
			JOINT RightLeg
			{
				OFFSET -0.524587 -46.096825 9.782800
				CHANNELS 3 Xrotation Yrotation Zrotation
				JOINT RightFoot
				{
					OFFSET 0.524587 -53.427383 -12.948300
					CHANNELS 3 Xrotation Yrotation Zrotation
					JOINT RightToeBase
					{
						OFFSET -0.192200 -14.009700 16.364100
						CHANNELS 3 Xrotation Yrotation Zrotation
						JOINT RightToe_End
						{
							OFFSET 1.784700 -0.561700 9.474800
							CHANNELS 3 Xrotation Yrotation Zrotation
							End Site
							{
								OFFSET 0 0 0
							}
						}
					}
				}
			}
		}
	}
	JOINT Spine_virtual
	{
		OFFSET 0.000000 0.000000 0.000000
		CHANNELS 3 Xrotation Yrotation Zrotation
		JOINT Spine
		{
			OFFSET 0.072000 7.257294 -0.789700
			CHANNELS 3 Xrotation Yrotation Zrotation
			JOINT Spine1
			{
				OFFSET 0.000000 12.508769 -0.658067
				CHANNELS 3 Xrotation Yrotation Zrotation
				JOINT Spine1_split
				{
					OFFSET 0.000000 12.508769 -0.658067
					CHANNELS 3 Xrotation Yrotation Zrotation
					JOINT Spine2
					{
						OFFSET 0.000000 12.508769 -0.658067
						CHANNELS 3 Xrotation Yrotation Zrotation
						JOINT Neck_virtual
						{
							OFFSET 0.000000 0.000000 0.000000
							CHANNELS 3 Xrotation Yrotation Zrotation
							JOINT Neck
							{
								OFFSET 0.000000 14.033295 7.520400
								CHANNELS 3 Xrotation Yrotation Zrotation
								JOINT Head
								{
									OFFSET 0.000000 8.198502 5.703100
									CHANNELS 3 Xrotation Yrotation Zrotation
									JOINT HeadTop_End
									{
										OFFSET 0.000000 17.760803 13.332701
										CHANNELS 3 Xrotation Yrotation Zrotation
										End Site
										{
											OFFSET 0 0 0
										}
									}
								}
							}
						}
						JOINT LeftShoulder_virtual
						{
							OFFSET 0.000000 0.000000 0.000000
							CHANNELS 3 Xrotation Yrotation Zrotation
							JOINT LeftShoulder
							{
								OFFSET 6.292450 5.785301 -0.669000
								CHANNELS 3 Xrotation Yrotation Zrotation
								JOINT LeftShoulder_split
								{
									OFFSET 6.292450 5.785301 -0.669000
									CHANNELS 3 Xrotation Yrotation Zrotation
									JOINT LeftArm
									{
										OFFSET 13.907140 -6.093903 1.965100
										CHANNELS 3 Xrotation Yrotation Zrotation
										JOINT LeftForeArm
										{
											OFFSET 34.140198 0.000000 0.000000
											CHANNELS 3 Xrotation Yrotation Zrotation
											JOINT LeftHand
											{
												OFFSET 40.960209 0.000000 0.000000
												CHANNELS 3 Xrotation Yrotation Zrotation
												End Site
												{
													OFFSET 0 0 0
												}
											}
										}
									}
								}
							}
						}
						JOINT RightShoulder_virtual
						{
							OFFSET 0.000000 0.000000 0.000000
							CHANNELS 3 Xrotation Yrotation Zrotation
							JOINT RightShoulder
							{
								OFFSET -6.292450 5.785301 -0.669000
								CHANNELS 3 Xrotation Yrotation Zrotation
								JOINT RightShoulder_split
								{
									OFFSET -6.292450 5.785301 -0.669000
									CHANNELS 3 Xrotation Yrotation Zrotation
									JOINT RightArm
									{
										OFFSET -13.907140 -6.093903 1.965100
										CHANNELS 3 Xrotation Yrotation Zrotation
										JOINT RightForeArm
										{
											OFFSET -34.140198 0.000000 0.000000
											CHANNELS 3 Xrotation Yrotation Zrotation
											JOINT RightHand
											{
												OFFSET -40.960209 0.000000 0.000000
												CHANNELS 3 Xrotation Yrotation Zrotation
												End Site
												{
													OFFSET 0 0 0
												}
											}
										}
									}
								}
							}
						}
					}
				}
			}
		}
	}
}
MOTION
Frames: 11
Frame Time: 0.03333333
-2.415706 98.859428 0.488987 0.000000 0.000000 0.000000 3.761702 57.971483 -9.780746 -8.560780 13.306417 17.514116 46.038050 -8.398476 14.279029 -17.458638 0.841967 -15.069848 -10.348050 -1.302877 -0.499598 0.000000 0.000000 0.000000 5.009729 59.767400 -10.569517 -24.733807 2.314180 -22.500725 26.247695 9.502977 -1.564591 -6.167122 9.746631 11.247547 -6.839011 -0.783292 0.183125 0.000000 0.000000 0.000000 6.085525 60.748071 -9.302061 1.876787 -3.950933 -0.760834 2.742378 -0.762572 -0.373151 1.020837 -0.690618 0.267658 0.000000 0.000000 0.000000 1.478713 -1.235858 -0.041281 -6.070185 -10.723131 -1.618034 -2.634406 -40.976972 5.631255 0.000000 0.000000 0.000000 1.320531 -1.064444 -0.388808 0.480967 -8.489572 -9.110166 -3.180980 -0.023117 -1.945389 3.231294 -46.111823 -46.533242 174.583474 -73.181693 173.483240 0.000000 0.000000 0.000000 2.309407 -0.887954 -0.428887 -0.066592 -2.045964 8.605759 -2.940829 6.871819 -0.371150 -22.369744 -6.992710 46.811135 -178.535913 65.378598 178.243130 0.000000 0.000000 0.000000 
-2.462772 103.163780 0.341637 0.000000 0.000000 0.000000 5.228965 56.696116 -10.936270 -9.118899 10.992725 18.380290 41.472103 -5.530606 12.051946 -11.978052 1.854361 -12.473011 -7.661200 -0.911170 -2.030295 0.000000 0.000000 0.000000 6.449132 56.857920 -11.366207 -23.767752 1.218281 -21.759212 22.042859 10.919273 -1.398721 -3.617765 11.762992 15.559921 -9.010433 -0.248707 -0.386746 0.000000 0.000000 0.000000 7.846459 57.639960 -10.610949 0.954329 -3.967599 0.010349 2.480836 -0.794055 -0.294801 1.416831 -0.605736 0.167906 0.000000 0.000000 0.000000 1.755656 -1.161014 -0.055711 -5.906560 -10.606000 -1.300748 -2.266635 -40.903274 5.626665 0.000000 0.000000 0.000000 1.334500 -1.059526 -0.289801 0.481722 -8.787564 -8.307606 -3.852746 -0.814806 -0.740867 -0.138775 -46.469465 -46.800678 176.075242 -71.850435 175.227561 0.000000 0.000000 0.000000 2.385521 -0.830361 -0.316551 0.035319 -1.843422 8.414768 -3.428922 5.727976 -1.335254 -23.777273 -7.613567 45.928917 -179.142352 64.175610 178.586347 0.000000 0.000000 0.000000 
-1.856304 110.129356 -0.801788 0.000000 0.000000 0.000000 6.616498 53.648899 -11.979739 -10.542058 8.061331 19.704985 35.249483 -2.620287 9.185248 -1.415534 1.351330 -11.311017 -2.450023 -0.657875 -4.546386 0.000000 0.000000 0.000000 8.217746 51.516224 -12.273153 -21.858002 0.804520 -19.689709 14.228867 12.239856 -0.695072 -0.538835 14.021920 18.433241 -9.190447 0.202908 -0.570048 0.000000 0.000000 0.000000 9.341992 52.322855 -11.547578 0.143441 -3.693723 1.193427 2.265996 -0.702300 -0.288536 1.557902 -0.321891 0.130320 0.000000 0.000000 0.000000 2.153181 -0.969641 -0.115150 -5.557929 -10.003388 -0.797572 -1.606461 -39.509410 5.684527 0.000000 0.000000 0.000000 1.557985 -0.929337 -0.222574 0.512403 -8.548039 -6.975429 -3.534855 -1.234695 -0.587965 -4.859152 -46.161591 -46.786608 177.690773 -69.841744 176.920163 0.000000 0.000000 0.000000 2.447751 -0.738632 -0.314630 0.188471 -1.266280 8.085102 -3.334852 4.463480 -1.384951 -26.029950 -6.695307 43.511952 -179.048409 62.892860 178.272814 0.000000 0.000000 0.000000 
-0.672246 117.443161 -2.847214 0.000000 0.000000 0.000000 6.914405 48.378776 -12.262969 -11.878998 5.586161 20.776223 30.936102 -0.086171 6.642986 10.872467 -0.440284 -10.835107 -0.775313 -0.600416 -6.075430 0.000000 0.000000 0.000000 8.919078 44.867977 -12.462834 -19.867005 0.438744 -16.739142 7.158641 12.189973 0.125183 1.728250 14.496670 18.203979 -7.302983 0.433632 -0.387434 0.000000 0.000000 0.000000 9.717510 45.665774 -11.443698 -0.269529 -3.171259 2.336294 2.101934 -0.488547 -0.329636 1.334731 -0.212103 0.046778 0.000000 0.000000 0.000000 2.568889 -0.670850 -0.197442 -5.081038 -9.048235 -0.247150 -0.795588 -36.880170 5.699592 0.000000 0.000000 0.000000 1.904803 -0.692420 -0.193125 0.521866 -7.833315 -5.476541 -2.781881 -1.148121 -1.126151 -9.909665 -44.865371 -46.767760 179.018220 -68.039612 178.211124 0.000000 0.000000 0.000000 2.505789 -0.577305 -0.417333 0.333793 -0.333923 7.773611 -2.827670 3.824396 -0.925737 -28.249517 -4.270877 40.472074 -178.601196 62.088796 177.749198 0.000000 0.000000 0.000000 
0.744657 123.334763 -4.336586 0.000000 0.000000 0.000000 6.081407 41.842507 -11.473543 -12.224090 4.461679 20.563336 29.284337 2.056935 4.833442 18.864346 -2.340920 -9.147596 -4.355124 -0.408703 -5.948737 0.000000 0.000000 0.000000 7.915275 37.486090 -11.609395 -18.889715 -0.478290 -13.584251 4.328879 10.392101 0.486721 2.680294 11.954190 15.173789 -5.393097 0.442016 -0.097906 0.000000 0.000000 0.000000 8.883832 38.983824 -10.332019 -0.169707 -2.448205 3.067483 2.046980 -0.152697 -0.384626 0.966408 -0.132666 -0.035929 0.000000 0.000000 0.000000 2.903625 -0.295200 -0.278374 -4.517404 -7.771418 0.191952 0.026010 -33.321915 5.589912 0.000000 0.000000 0.000000 2.297720 -0.355548 -0.214375 0.469111 -6.770313 -4.196435 -2.178220 -0.523591 -1.677376 -14.309896 -42.793164 -46.815916 179.854440 -66.989710 178.975695 0.000000 0.000000 0.000000 2.551354 -0.312981 -0.579243 0.484209 0.829890 7.718781 -2.125401 3.870697 -0.680394 -29.780096 -0.878290 37.716311 -178.103972 62.127339 177.351422 0.000000 0.000000 0.000000 
2.242373 126.571594 -4.806717 0.000000 0.000000 0.000000 4.202792 34.485437 -9.595813 -12.660342 5.039969 19.235462 30.893092 4.187351 3.546747 19.734595 -3.160729 -6.433229 -8.386256 -0.097288 -5.648581 0.000000 0.000000 0.000000 5.470578 30.693992 -9.826147 -19.330270 -1.891008 -11.098336 7.589952 7.753219 0.245044 2.378713 7.311291 10.858259 -4.602990 0.289875 0.011021 0.000000 0.000000 0.000000 7.013234 33.234348 -8.455855 0.342971 -1.615254 3.224542 2.092235 0.285623 -0.424463 0.703972 -0.235577 -0.174196 0.000000 0.000000 0.000000 3.069398 0.096149 -0.343914 -3.971590 -6.287326 0.430063 0.768409 -29.285167 5.334377 0.000000 0.000000 0.000000 2.629680 0.045035 -0.291641 0.382007 -5.636016 -3.458293 -2.051185 0.147041 -2.190329 -16.851591 -40.118830 -46.948214 -179.824783 -66.769320 179.271483 0.000000 0.000000 0.000000 2.630673 0.041856 -0.720640 0.622955 2.059781 8.083729 -1.538703 4.047609 -0.672038 -30.157409 2.636324 35.929787 -177.855449 63.171614 177.356886 0.000000 0.000000 0.000000 
3.430909 127.548676 -5.317574 0.000000 0.000000 0.000000 2.109998 26.309778 -7.027877 -14.301094 5.960803 17.329670 34.408943 5.774368 2.885324 15.396718 -3.149743 -4.346609 -9.096300 0.239028 -5.599474 0.000000 0.000000 0.000000 2.889349 25.492539 -7.475035 -20.782510 -3.487315 -10.112049 15.703339 5.293751 -0.087519 1.383903 2.546292 7.176170 -3.711115 0.103332 -0.070040 0.000000 0.000000 0.000000 4.698094 27.644115 -6.255357 1.062851 -0.774625 2.748137 2.219999 0.756109 -0.449096 0.767729 -0.305679 -0.050111 0.000000 0.000000 0.000000 3.044147 0.471130 -0.386243 -3.372111 -4.779694 0.446155 1.385158 -25.154458 4.983280 0.000000 0.000000 0.000000 2.869291 0.460282 -0.407727 0.311047 -4.505755 -3.385186 -2.288856 0.696365 -2.446845 -17.453838 -37.246575 -47.464969 -179.858101 -67.366006 179.311836 0.000000 0.000000 0.000000 2.791594 0.476185 -0.820559 0.735087 3.106294 8.932432 -1.230356 4.279996 -1.059593 -29.629627 5.424395 35.368444 -178.029263 65.028578 177.801135 0.000000 0.000000 0.000000 
4.003104 127.226868 -5.944340 0.000000 0.000000 0.000000 1.041698 18.918026 -4.338279 -16.931892 5.440524 15.309417 36.954312 5.596992 3.004922 10.505765 -3.206947 -4.849274 -6.596099 0.552051 -5.321042 0.000000 0.000000 0.000000 1.341134 21.502955 -4.946226 -22.240653 -4.855449 -10.849470 24.881884 3.879626 -0.360808 0.816473 -0.735554 5.201277 -2.143341 0.023460 -0.269016 0.000000 0.000000 0.000000 2.708060 22.425692 -4.206795 1.634672 -0.008593 1.815488 2.412998 1.169786 -0.474346 0.613166 -0.415008 0.572235 0.000000 0.000000 0.000000 2.930884 0.821502 -0.398645 -2.686481 -3.277727 0.333113 1.790148 -21.226698 4.586419 0.000000 0.000000 0.000000 2.986226 0.851686 -0.533850 0.281342 -3.494429 -3.956803 -2.690242 0.737548 -2.304703 -16.044176 -34.608367 -48.201396 179.773051 -68.352189 179.093680 0.000000 0.000000 0.000000 2.941986 0.938584 -0.846806 0.846876 3.841726 10.114207 -1.126837 4.380301 -1.632455 -28.676228 7.185986 36.042410 -178.496189 67.072949 178.452270 0.000000 0.000000 0.000000 
4.095968 126.407333 -5.766766 0.000000 0.000000 0.000000 1.265076 12.748343 -1.916601 -19.919494 3.842811 14.020220 36.300065 3.752786 3.752549 8.783655 -3.559186 -8.144772 -3.859353 0.796581 -4.330604 0.000000 0.000000 0.000000 1.175650 17.489283 -2.432254 -22.846810 -5.660150 -12.979829 30.909089 3.852377 -0.781516 2.066898 -1.842191 5.451632 -1.428270 0.115815 -0.453508 0.000000 0.000000 0.000000 1.140592 17.371574 -2.400410 1.817088 0.575683 0.723306 2.575868 1.483255 -0.497995 0.676524 -1.011929 1.069139 0.000000 0.000000 0.000000 2.797841 1.132261 -0.399794 -2.052975 -1.890339 0.215533 1.983201 -17.672191 4.235523 0.000000 0.000000 0.000000 2.893278 1.202291 -0.642878 0.270308 -2.748003 -4.947121 -3.250308 -0.044966 -1.923440 -13.332651 -31.885854 -48.971517 179.347818 -69.186135 178.928389 0.000000 0.000000 0.000000 2.984269 1.360379 -0.787981 0.933578 4.214215 11.426007 -1.216726 4.111740 -2.085783 -27.774607 8.126248 37.672144 -179.101630 68.648811 179.113870 0.000000 0.000000 0.000000 
3.773981 125.370941 -5.688065 0.000000 0.000000 0.000000 2.495700 7.072430 -0.017453 -22.136382 2.565805 13.684321 31.854291 1.737216 4.681431 9.590228 -4.020347 -11.583496 -2.742278 0.901934 -2.678490 0.000000 0.000000 0.000000 2.099527 12.825816 -0.405143 -22.306588 -6.019943 -15.703435 31.836731 5.013578 -1.252658 5.047949 -1.018897 7.427939 -2.836169 0.330778 -0.404642 0.000000 0.000000 0.000000 0.651989 11.998880 -1.174009 1.618306 1.022006 -0.201808 2.663362 1.703705 -0.533028 0.887563 -1.488827 1.277718 0.000000 0.000000 0.000000 2.669636 1.421267 -0.401772 -1.612617 -0.694033 0.091671 2.000518 -14.474566 3.991287 0.000000 0.000000 0.000000 2.633801 1.509658 -0.717280 0.259217 -2.226872 -6.024979 -3.601011 -0.977840 -1.556438 -10.538278 -28.821588 -49.476931 179.160097 -69.714996 179.085456 0.000000 0.000000 0.000000 2.874938 1.720155 -0.691760 0.991650 4.312487 12.613960 -1.419868 3.555591 -2.324076 -27.271212 8.922609 39.760963 -179.585249 69.366445 179.532424 0.000000 0.000000 0.000000 
3.454125 123.495773 -5.846546 0.000000 0.000000 0.000000 4.056602 2.012548 1.014899 -23.540155 2.498470 14.421405 26.145863 0.248954 5.543561 10.655500 -4.498218 -14.268762 -1.847408 0.905039 -1.546182 0.000000 0.000000 0.000000 3.402897 7.210778 0.844735 -21.325232 -5.957624 -18.001508 29.244244 6.620282 -1.710846 7.690356 0.795133 9.511929 -6.255280 0.532909 -0.020117 0.000000 0.000000 0.000000 1.222328 6.522086 -0.466634 1.259052 1.370149 -0.664345 2.678518 1.844604 -0.548004 0.666458 -1.759110 1.453545 0.000000 0.000000 0.000000 2.577422 1.655575 -0.417929 -1.633239 0.274896 -0.060269 1.731748 -11.458068 3.832179 0.000000 0.000000 0.000000 2.327362 1.749278 -0.738415 0.221533 -2.031532 -7.032976 -3.846671 -1.511325 -1.300658 -8.304021 -25.281190 -49.568612 179.319568 -69.611335 179.663468 0.000000 0.000000 0.000000 2.648297 2.004333 -0.584638 0.966100 4.329413 13.475163 -1.573908 2.809332 -2.113557 -27.236498 10.380460 41.807803 -179.785073 69.398205 179.621230 0.000000 0.000000 0.000000 
